<svg xmlns="http://www.w3.org/2000/svg" width="22.21" height="22.21" viewBox="0 0 22.21 22.21"><path d="M11.1,0C8.088,0,7.711.014,6.527.067a8.188,8.188,0,0,0-2.7.516A5.438,5.438,0,0,0,1.864,1.864,5.418,5.418,0,0,0,.583,3.831a8.165,8.165,0,0,0-.516,2.7C.011,7.711,0,8.088,0,11.1S.014,14.5.067,15.683a8.194,8.194,0,0,0,.516,2.7,5.446,5.446,0,0,0,1.281,1.967,5.43,5.43,0,0,0,1.967,1.281,8.2,8.2,0,0,0,2.7.516c1.185.056,1.561.067,4.578.067s3.393-.014,4.578-.067a8.218,8.218,0,0,0,2.7-.516,5.675,5.675,0,0,0,3.248-3.248,8.193,8.193,0,0,0,.516-2.7c.056-1.185.067-1.561.067-4.578s-.014-3.393-.067-4.578a8.212,8.212,0,0,0-.516-2.7,5.45,5.45,0,0,0-1.281-1.967A5.411,5.411,0,0,0,18.378.583a8.17,8.17,0,0,0-2.7-.516C14.5.011,14.122,0,11.1,0Zm0,2c2.964,0,3.318.015,4.488.066a6.118,6.118,0,0,1,2.061.384,3.654,3.654,0,0,1,2.108,2.107,6.131,6.131,0,0,1,.382,2.061c.053,1.172.065,1.523.065,4.488s-.014,3.318-.068,4.488a6.249,6.249,0,0,1-.39,2.061,3.526,3.526,0,0,1-.832,1.279,3.464,3.464,0,0,1-1.277.829,6.176,6.176,0,0,1-2.068.382c-1.179.053-1.526.065-4.5.065s-3.318-.014-4.5-.068a6.3,6.3,0,0,1-2.069-.39,3.439,3.439,0,0,1-1.276-.832A3.372,3.372,0,0,1,2.4,17.642a6.3,6.3,0,0,1-.389-2.068c-.042-1.166-.056-1.526-.056-4.483s.015-3.318.056-4.5A6.3,6.3,0,0,1,2.4,4.525a3.292,3.292,0,0,1,.833-1.278,3.285,3.285,0,0,1,1.276-.831,6.146,6.146,0,0,1,2.055-.39c1.18-.042,1.527-.056,4.5-.056L11.1,2Zm0,3.4a5.7,5.7,0,1,0,5.7,5.7A5.7,5.7,0,0,0,11.1,5.4Zm0,9.4a3.7,3.7,0,1,1,3.7-3.7A3.7,3.7,0,0,1,11.1,14.806Zm7.261-9.629a1.333,1.333,0,1,1-1.333-1.332A1.334,1.334,0,0,1,18.366,5.178Z" fill="#707070"/></svg>