<svg xmlns="http://www.w3.org/2000/svg" width="20.258" height="20.258" viewBox="0 0 20.258 20.258"><path d="M18.811,2.25H1.442A1.453,1.453,0,0,0,0,3.711V21.047a1.453,1.453,0,0,0,1.442,1.461H18.811a1.457,1.457,0,0,0,1.447-1.461V3.711A1.457,1.457,0,0,0,18.811,2.25ZM6.123,19.614h-3V9.946H6.127v9.668ZM4.621,8.626A1.741,1.741,0,1,1,6.362,6.885,1.742,1.742,0,0,1,4.621,8.626ZM17.377,19.614h-3v-4.7c0-1.121-.023-2.564-1.56-2.564-1.565,0-1.8,1.221-1.8,2.482v4.784h-3V9.946h2.88v1.32h.041a3.162,3.162,0,0,1,2.844-1.56c3.039,0,3.6,2,3.6,4.608Z" transform="translate(0 -2.25)" fill="#707070"/></svg>