<svg xmlns="http://www.w3.org/2000/svg" width="20.208" height="20.208" viewBox="0 0 20.208 20.208"><path d="M18.043,2.25H2.165A2.166,2.166,0,0,0,0,4.415V20.293a2.166,2.166,0,0,0,2.165,2.165H18.043a2.166,2.166,0,0,0,2.165-2.165V4.415A2.166,2.166,0,0,0,18.043,2.25ZM15.837,9.413c.009.126.009.257.009.383a8.36,8.36,0,0,1-8.417,8.417,8.378,8.378,0,0,1-4.542-1.326,6.233,6.233,0,0,0,.713.036A5.931,5.931,0,0,0,7.271,15.66a2.962,2.962,0,0,1-2.765-2.052,3.188,3.188,0,0,0,1.335-.054,2.959,2.959,0,0,1-2.368-2.9v-.036a2.956,2.956,0,0,0,1.335.374A2.952,2.952,0,0,1,3.491,8.524a2.921,2.921,0,0,1,.4-1.493,8.4,8.4,0,0,0,6.1,3.094,2.965,2.965,0,0,1,5.047-2.7,5.8,5.8,0,0,0,1.876-.713,2.951,2.951,0,0,1-1.3,1.628,5.887,5.887,0,0,0,1.705-.46A6.227,6.227,0,0,1,15.837,9.413Z" transform="translate(0 -2.25)" fill="#707070"/></svg>