<svg xmlns="http://www.w3.org/2000/svg" width="19.109" height="19.088" viewBox="0 0 19.109 19.088"><g transform="translate(0 -0.256)"><g transform="translate(10.439 0.256)"><path d="M260.113.256a19.331,19.331,0,0,1,2.516,5.129A11.082,11.082,0,0,0,266.4,4.064l.342-.212A9.568,9.568,0,0,0,260.113.256Z" transform="translate(-260.113 -0.256)" fill="#707070"/></g><g transform="translate(6.835 6.923)"><path d="M175.442,166.4a21.046,21.046,0,0,1-4.794,0,13.082,13.082,0,0,0-.322,2.192h5.438A13.084,13.084,0,0,0,175.442,166.4Z" transform="translate(-170.326 -166.4)" fill="#707070"/></g><g transform="translate(7.534 13.909)"><path d="M189.753,340.48a19.874,19.874,0,0,0-2.02.1,18.383,18.383,0,0,0,2.02,4.184,18.386,18.386,0,0,0,2.02-4.184A19.874,19.874,0,0,0,189.753,340.48Z" transform="translate(-187.733 -340.48)" fill="#707070"/></g><g transform="translate(13.311 10.485)"><path d="M332.017,255.147a14.5,14.5,0,0,1-.327,2.4,12.259,12.259,0,0,1,4.14,1.488l.387.241a9.524,9.524,0,0,0,1.271-4.13Z" transform="translate(-331.69 -255.147)" fill="#707070"/></g><g transform="translate(13.311 4.986)"><path d="M336.216,118.118l-.387.241a12.26,12.26,0,0,1-4.14,1.491,14.507,14.507,0,0,1,.327,2.4h5.471A9.525,9.525,0,0,0,336.216,118.118Z" transform="translate(-331.69 -118.118)" fill="#707070"/></g><g transform="translate(6.835 10.485)"><path d="M170.325,255.147a13.075,13.075,0,0,0,.323,2.192,21.12,21.12,0,0,1,4.794,0,13.077,13.077,0,0,0,.321-2.192Z" transform="translate(-170.325 -255.147)" fill="#707070"/></g><g transform="translate(0 4.986)"><path d="M1.658,118.359l-.387-.241A9.526,9.526,0,0,0,0,122.247H5.471a14.508,14.508,0,0,1,.327-2.4A12.26,12.26,0,0,1,1.658,118.359Z" transform="translate(0 -118.118)" fill="#707070"/></g><g transform="translate(2.04 14.216)"><path d="M54.956,348.109a11.1,11.1,0,0,0-3.772,1.32l-.342.213a9.565,9.565,0,0,0,6.63,3.6A19.315,19.315,0,0,1,54.956,348.109Z" transform="translate(-50.842 -348.109)" fill="#707070"/></g><g transform="translate(7.534 1.403)"><path d="M189.753,28.826a18.392,18.392,0,0,0-2.02,4.183,19.532,19.532,0,0,0,4.041,0A18.393,18.393,0,0,0,189.753,28.826Z" transform="translate(-187.733 -28.826)" fill="#707070"/></g><g transform="translate(10.436 14.216)"><path d="M266.351,349.429a11.1,11.1,0,0,0-3.772-1.32,19.314,19.314,0,0,1-2.518,5.128,9.565,9.565,0,0,0,6.63-3.6Z" transform="translate(-260.062 -348.108)" fill="#707070"/></g><g transform="translate(2.042 0.256)"><path d="M50.893,3.853l.34.212a11.082,11.082,0,0,0,3.772,1.321A19.33,19.33,0,0,1,57.523.257,9.568,9.568,0,0,0,50.893,3.853Z" transform="translate(-50.893 -0.257)" fill="#707070"/></g><g transform="translate(0 10.485)"><path d="M5.471,255.147H0a9.524,9.524,0,0,0,1.271,4.13l.387-.241a12.26,12.26,0,0,1,4.14-1.488A14.5,14.5,0,0,1,5.471,255.147Z" transform="translate(0 -255.147)" fill="#707070"/></g></g></svg>