<svg xmlns="http://www.w3.org/2000/svg" width="27.279" height="20.463" viewBox="0 0 27.279 20.463"><path d="M27.1,9.019a4.142,4.142,0,0,0-3.943-4.327C20.206,4.553,17.2,4.5,14.121,4.5h-.959c-3.069,0-6.085.053-9.038.192A4.151,4.151,0,0,0,.186,9.029c-.133,1.9-.192,3.794-.187,5.691s.053,3.794.181,5.7A4.156,4.156,0,0,0,4.119,24.76c3.1.144,6.283.208,9.517.2q4.86.016,9.517-.2A4.157,4.157,0,0,0,27.1,20.417c.128-1.9.187-3.8.181-5.7Q27.294,11.87,27.1,9.019ZM11.03,19.948V9.477l7.727,5.233Z" transform="translate(0 -4.5)" fill="#707070"/></svg>